<svg width="20" height="21" viewBox="0 0 20 21" fill="none" xmlns="http://www.w3.org/2000/svg">
<path d="M8.23082 13.5288C5.02749 13.5288 2.29166 14.0129 2.29166 15.9538C2.29166 17.8921 5.00999 18.3954 8.23082 18.3954C11.4342 18.3954 14.17 17.9096 14.17 15.9704C14.17 14.0313 11.4517 13.5288 8.23082 13.5288ZM8.23082 10.7621C8.73122 10.7639 9.22701 10.6666 9.68965 10.4759C10.1523 10.2852 10.5726 10.0049 10.9265 9.65108C11.2803 9.29725 11.5606 8.87691 11.7513 8.41427C11.942 7.95162 12.0393 7.45583 12.0375 6.95544C12.0394 6.45501 11.9422 5.95917 11.7515 5.49647C11.5609 5.03378 11.2806 4.6134 10.9267 4.25954C10.5729 3.90569 10.1525 3.62536 9.68978 3.43472C9.22709 3.24408 8.73125 3.1469 8.23082 3.14877C7.7305 3.14712 7.23479 3.24446 6.77225 3.43519C6.3097 3.62591 5.88946 3.90626 5.53571 4.26008C5.18197 4.61391 4.90171 5.03421 4.71109 5.4968C4.52046 5.95939 4.42323 6.45511 4.42499 6.95544C4.42334 7.4558 4.52067 7.95154 4.71139 8.41414C4.90211 8.87673 5.18244 9.29703 5.53625 9.65084C5.89007 10.0046 6.31037 10.285 6.77296 10.4757C7.23555 10.6664 7.7313 10.7638 8.23166 10.7621H8.23082Z" stroke="#575579" stroke-linecap="round" stroke-linejoin="round"/>
<path d="M16.0033 8.08212V11.4238M17.7083 9.75212H14.3" stroke="#575579" stroke-linecap="round" stroke-linejoin="round"/>
</svg>
