<svg width="24" height="24" viewBox="0 0 24 24" fill="none" xmlns="http://www.w3.org/2000/svg">
<path d="M18.9036 15.75L17.5161 13.9237C17.4918 13.8913 17.4786 13.8518 17.4786 13.8112V8.65499C17.4948 7.21261 16.9563 5.81911 15.9744 4.76248C14.9924 3.70584 13.6421 3.06683 12.2023 2.97749C11.4512 2.93881 10.7 3.05343 9.99458 3.31436C9.28914 3.57529 8.64419 3.97708 8.099 4.49525C7.55382 5.01342 7.1198 5.63714 6.82339 6.32842C6.52697 7.0197 6.37436 7.76408 6.37485 8.51624V14.0025C6.37485 14.0431 6.36169 14.0825 6.33735 14.115L5.10735 15.75C4.88729 15.9916 4.74213 16.292 4.6895 16.6145C4.63688 16.9371 4.67905 17.268 4.8109 17.567C4.94275 17.8661 5.15861 18.1204 5.43224 18.2991C5.70588 18.4778 6.02552 18.5732 6.35235 18.5737H17.6474C17.9751 18.5754 18.2963 18.4816 18.5716 18.3037C18.847 18.1259 19.0646 17.8717 19.1978 17.5722C19.331 17.2727 19.3742 16.9409 19.3219 16.6173C19.2697 16.2937 19.1243 15.9923 18.9036 15.75ZM18.1536 17.1C18.1112 17.2009 18.0396 17.2869 17.9481 17.347C17.8566 17.4071 17.7493 17.4386 17.6399 17.4375H6.35235C6.24466 17.4355 6.1398 17.4026 6.05025 17.3428C5.96069 17.2829 5.8902 17.1986 5.84715 17.0999C5.8041 17.0012 5.79031 16.8921 5.80741 16.7858C5.8245 16.6795 5.87177 16.5803 5.9436 16.5L5.98485 16.4512L7.2486 14.7862C7.41374 14.5584 7.50177 14.2838 7.49985 14.0025V8.51624C7.49985 7.93486 7.6146 7.3592 7.83754 6.82226C8.06048 6.28533 8.38721 5.79768 8.799 5.38728C9.2108 4.97688 9.69955 4.6518 10.2372 4.43068C10.7749 4.20957 11.351 4.09676 11.9323 4.09874H12.1498C13.301 4.17456 14.3791 4.68963 15.1614 5.53754C15.9437 6.38545 16.3705 7.50144 16.3536 8.65499V13.83C16.3536 14.1169 16.4471 14.396 16.6198 14.625L18.0224 16.47L18.0598 16.5112C18.1353 16.5909 18.1852 16.6913 18.2032 16.7995C18.2213 16.9078 18.2066 17.0189 18.1611 17.1187L18.1536 17.1ZM14.2198 20.0287C13.9384 20.3442 13.5935 20.5967 13.2077 20.7695C12.8219 20.9424 12.4039 21.0317 11.9811 21.0317C11.5583 21.0317 11.1403 20.9424 10.7545 20.7695C10.3687 20.5967 10.0238 20.3442 9.74235 20.0287C9.65233 19.9165 9.60871 19.7741 9.62046 19.6308C9.63221 19.4874 9.69843 19.354 9.80552 19.258C9.9126 19.1619 10.0524 19.1106 10.1962 19.1144C10.34 19.1183 10.4768 19.1771 10.5786 19.2787C10.7545 19.4764 10.9702 19.6346 11.2116 19.7429C11.453 19.8512 11.7146 19.9072 11.9792 19.9072C12.2438 19.9072 12.5054 19.8512 12.7468 19.7429C12.9882 19.6346 13.2039 19.4764 13.3798 19.2787C13.4816 19.1771 13.6185 19.1183 13.7623 19.1144C13.906 19.1106 14.0458 19.1619 14.1529 19.258C14.26 19.354 14.3262 19.4874 14.338 19.6308C14.3497 19.7741 14.3061 19.9165 14.2161 20.0287H14.2198Z" fill="white"/>
</svg>
