<svg width="18" height="18" viewBox="0 0 18 18" fill="none" xmlns="http://www.w3.org/2000/svg">
<path d="M11.81 1.5C14.6926 1.5 16.5 3.2942 16.5 6.18997V7.9314L16.4948 8.00927C16.4568 8.28938 16.2167 8.50528 15.9261 8.50528H15.9195L15.8289 8.49802C15.7098 8.47878 15.5991 8.42189 15.5137 8.33449C15.4069 8.22523 15.3487 8.07753 15.3522 7.9248V6.18997C15.3522 3.90765 14.0923 2.64776 11.81 2.64776H6.18997C3.90106 2.64776 2.64776 3.90765 2.64776 6.18997V11.8166C2.64776 14.0989 3.90765 15.3522 6.18997 15.3522H11.81C14.0989 15.3522 15.3522 14.0923 15.3522 11.8166C15.3522 11.4997 15.6092 11.2427 15.9261 11.2427C16.2431 11.2427 16.5 11.4997 16.5 11.8166C16.5 14.7058 14.7058 16.5 11.8166 16.5H6.18997C3.2942 16.5 1.5 14.7058 1.5 11.8166V6.18997C1.5 3.2942 3.2942 1.5 6.18997 1.5H11.81ZM5.81398 7.16623C5.96622 7.17139 6.11015 7.23685 6.21408 7.34821C6.31802 7.45956 6.37341 7.60767 6.36807 7.75989V12.5554C6.35714 12.8724 6.09135 13.1204 5.77441 13.1095C5.45746 13.0986 5.20939 12.8328 5.22032 12.5158V7.71372L5.23054 7.62398C5.25355 7.50634 5.31344 7.39817 5.40269 7.31586C5.51425 7.21298 5.66239 7.15908 5.81398 7.16623ZM9.02638 4.91689C9.34333 4.91689 9.60026 5.17382 9.60026 5.49076V12.5224C9.60026 12.8394 9.34333 13.0963 9.02638 13.0963C8.70944 13.0963 8.45251 12.8394 8.45251 12.5224V5.49076C8.45251 5.17382 8.70944 4.91689 9.02638 4.91689ZM12.2058 9.69921C12.5227 9.69921 12.7797 9.95614 12.7797 10.2731V12.5158C12.7797 12.8328 12.5227 13.0897 12.2058 13.0897C11.8889 13.0897 11.6319 12.8328 11.6319 12.5158V10.2731C11.6319 9.95614 11.8889 9.69921 12.2058 9.69921Z" fill="white"/>
</svg>
