<svg width="62" height="40" viewBox="0 0 62 40" fill="none" xmlns="http://www.w3.org/2000/svg">
<g clip-path="url(#clip0_16_52)">
<path d="M49.7 19.9C48.9 32 38 41.1 27.1 38.9C27.5 26.2 36.9 18.1 49.7 19.9Z" fill="#46CDCF"/>
<path d="M30.1 0C35 4.9 38.4 10 39 16.7C39.1 17.6 38.3 18.8 37.6 19.4C35.4 21.2 33 22.7 30.6 24.4C30.3 24.6 30 24.9 29.6 24.9C28 25.2 21.4 18.6 21.5 16.8C22 10.2 25.1 5 30.1 0Z" fill="#46CDCF"/>
<path d="M10.2 19.1C16.6 19.1 22.5 20.5 26.8 25.6C27.4 26.3 27.7 27.7 27.5 28.6C26.7 31.4 25.6 34.2 24.6 37C17.8 36.4 10.5 27.4 10.2 19.1Z" fill="#46CDCF"/>
<path d="M62 32.6C54.6 37.6 47.9 39.9 40.4 39.3C43.4 35.7 46.2 32.1 49.2 28.6C49.6 28.1 50.6 27.7 51.1 27.9C54.5 29.2 57.8 30.7 62 32.6Z" fill="#46CDCF"/>
<path d="M0 32.5C3.6 30.9 6.3 29.5 9.1 28.5C9.7 28.3 11 28.8 11.6 29.4C14.6 32.6 17.6 35.8 20.7 39.3C13.5 39.6 7.1 37.4 0 32.5Z" fill="#46CDCF"/>
<path d="M19 17.6C13.9 17.2 13.1 15.9 15.4 11.1C20.3 12.4 20.7 12.9 19 17.6Z" fill="#46CDCF"/>
<path d="M44.7 11C46.9 16.3 46.3 17.5 41.4 17.5C39.8 13.1 40 12.6 44.7 11Z" fill="#46CDCF"/>
</g>
<defs>
<clipPath id="clip0_16_52">
<rect width="62" height="39.3" fill="white"/>
</clipPath>
</defs>
</svg>
