<svg width="20" height="20" viewBox="0 0 20 20" fill="none" xmlns="http://www.w3.org/2000/svg">
<path d="M8.87167 13.0383C8.83293 13.0771 8.8022 13.1231 8.78123 13.1737C8.76026 13.2243 8.74947 13.2786 8.74947 13.3333C8.74947 13.3881 8.76026 13.4424 8.78123 13.493C8.8022 13.5436 8.83293 13.5896 8.87167 13.6283C8.91041 13.6671 8.9564 13.6978 9.00701 13.7188C9.05763 13.7397 9.11188 13.7505 9.16667 13.7505C9.22145 13.7505 9.2757 13.7397 9.32632 13.7188C9.37694 13.6978 9.42293 13.6671 9.46167 13.6283L12.795 10.295C12.8338 10.2563 12.8646 10.2103 12.8856 10.1597C12.9066 10.1091 12.9174 10.0548 12.9174 10C12.9174 9.9452 12.9066 9.89093 12.8856 9.84031C12.8646 9.78969 12.8338 9.74371 12.795 9.70501L9.46167 6.37167C9.38343 6.29344 9.27731 6.24948 9.16667 6.24948C9.05602 6.24948 8.94991 6.29344 8.87167 6.37167C8.79343 6.44991 8.74947 6.55603 8.74947 6.66667C8.74947 6.77732 8.79343 6.88344 8.87167 6.96167L11.4942 9.58334H1.66667C1.55616 9.58334 1.45018 9.62724 1.37204 9.70538C1.2939 9.78352 1.25 9.8895 1.25 10C1.25 10.1105 1.2939 10.2165 1.37204 10.2946C1.45018 10.3728 1.55616 10.4167 1.66667 10.4167H11.4942L8.87167 13.0383Z" fill="#5E5C7F"/>
<path d="M10 1.25C8.29836 1.25104 6.63394 1.74823 5.21053 2.68069C3.78712 3.61315 2.66649 4.94042 1.98583 6.5C1.96194 6.55042 1.94842 6.60513 1.94608 6.66088C1.94373 6.71662 1.9526 6.77227 1.97217 6.82452C1.99174 6.87677 2.0216 6.92456 2.05999 6.96506C2.09837 7.00555 2.1445 7.03792 2.19563 7.06025C2.24676 7.08258 2.30186 7.09441 2.35765 7.09504C2.41344 7.09567 2.46879 7.08509 2.52042 7.06393C2.57204 7.04277 2.61889 7.01145 2.65819 6.97184C2.69748 6.93223 2.72842 6.88513 2.74917 6.83333C3.47668 5.1664 4.75597 3.8008 6.37193 2.96615C7.98788 2.13151 9.84195 1.87873 11.6224 2.25033C13.4028 2.62192 15.0009 3.59522 16.1481 5.00657C17.2953 6.41791 17.9216 8.18122 17.9216 10C17.9216 11.8188 17.2953 13.5821 16.1481 14.9934C15.0009 16.4048 13.4028 17.3781 11.6224 17.7497C9.84195 18.1213 7.98788 17.8685 6.37193 17.0339C4.75597 16.1992 3.47668 14.8336 2.74917 13.1667C2.72842 13.1149 2.69748 13.0678 2.65819 13.0282C2.61889 12.9886 2.57204 12.9572 2.52042 12.9361C2.46879 12.9149 2.41344 12.9043 2.35765 12.905C2.30186 12.9056 2.24676 12.9174 2.19563 12.9398C2.1445 12.9621 2.09837 12.9945 2.05999 13.0349C2.0216 13.0754 1.99174 13.1232 1.97217 13.1755C1.9526 13.2277 1.94373 13.2834 1.94608 13.3391C1.94842 13.3949 1.96194 13.4496 1.98583 13.5C2.61694 14.946 3.62729 16.1945 4.90994 17.1133C6.19258 18.0321 7.69979 18.587 9.272 18.7192C10.8442 18.8514 12.4229 18.5561 13.841 17.8645C15.2591 17.1729 16.4638 16.1107 17.3276 14.7903C18.1913 13.47 18.6821 11.9407 18.7478 10.3643C18.8134 8.78793 18.4517 7.2231 17.7008 5.8355C16.9498 4.44789 15.8377 3.28915 14.4821 2.48192C13.1264 1.6747 11.5778 1.24904 10 1.25Z" fill="#5E5C7F"/>
</svg>
