<svg width="264" height="330" viewBox="0 0 264 330" fill="none" xmlns="http://www.w3.org/2000/svg">
<path d="M218.926 210.033L230.672 317.128H196.501L216.79 307.198L190.449 216.164C190.449 216.164 204.04 189.348 217.348 209.071" fill="#46CDCF"/>
<path d="M101.097 88.9026C100.099 86.9365 98.9894 85.029 97.7724 83.1897C96.5693 80.4343 93.6505 74.115 92.1696 74.115C92.0072 74.1262 91.8528 74.1891 91.7291 74.2944C91.6054 74.3999 91.519 74.542 91.4827 74.7001C91.1481 75.6328 91.3297 76.8668 91.7034 78.0691L91.3083 77.5087C88.304 73.2817 87.5672 73.0654 87.1081 73.1966C86.9051 73.2569 86.6595 73.4413 86.6595 73.998C86.6595 75.615 88.0834 78.4059 89.3897 80.6258C86.9514 78.0867 83.8368 75.1328 82.776 75.4093C82.6526 75.4417 82.5414 75.5093 82.4561 75.6039C82.3706 75.6984 82.3148 75.8156 82.2955 75.9413C82.0891 76.874 83.1747 78.6754 84.5273 80.4804L84.1536 80.1257C78.5223 75.1044 77.7464 75.5158 77.3691 75.7286C76.9917 75.9413 76.9276 76.2959 77.0487 76.874C77.4403 78.7108 79.4051 81.0584 81.5088 83.133C78.4583 81.1151 75.4825 79.4414 74.6673 79.9875C74.4715 80.1152 74.2758 80.3847 74.4217 80.9414C74.856 82.5762 77.5399 85.1401 80.2061 87.3599C82.8721 89.5799 85.5241 91.4594 85.9013 91.7147C88.749 93.6971 88.749 102.031 88.6813 104.538C88.4073 115.531 81.9182 124.942 74.8382 132.861C73.8558 133.96 72.8626 135.027 71.8731 136.053L71.8268 136.103C71.1704 136.724 70.6124 137.441 70.1716 138.23C68.5093 141.577 72.4675 146.056 74.9557 147.708C76.7757 148.877 78.9067 149.471 81.071 149.414C82.1939 149.403 83.3132 149.284 84.4134 149.06C85.4777 148.851 86.5275 148.576 87.5565 148.233C89.2955 147.666 90.9332 146.826 92.4082 145.748C98.5378 141.219 101.645 133.176 104.091 125.162C107.824 113.143 106.751 100.152 101.097 88.9026ZM103.411 124.971C102.204 128.917 100.837 132.875 99.0289 136.389C97.2208 139.904 94.9675 142.989 91.9846 145.191C90.5682 146.242 88.9914 147.061 87.3144 147.613C86.227 147.973 85.1162 148.258 83.9899 148.468C80.4837 149.092 77.5826 148.655 75.3258 147.159C73.0691 145.663 69.3387 141.486 70.7839 138.581C71.1961 137.858 71.7131 137.199 72.3181 136.627L72.3643 136.574C73.3136 135.588 74.2509 134.577 75.1764 133.538C82.4165 125.482 89.0836 115.896 89.3684 104.577C89.4538 101.25 89.3184 93.2821 86.2822 91.1579C83.4025 89.1473 75.778 83.3564 75.091 80.7819C75.0705 80.7201 75.0609 80.6554 75.0624 80.5904C75.8954 80.2996 81.2846 83.6401 87.1828 88.0799L87.6135 87.516C87.5245 87.4486 78.5508 80.6293 77.725 76.7463C77.6977 76.6301 77.6856 76.5109 77.6894 76.3917C78.4832 76.1222 83.5093 80.2606 88.902 85.6365L89.4111 85.1401C86.7805 82.3812 82.7262 77.5194 82.9718 76.1115C83.8866 76.1115 88.0585 80.1578 91.4969 84.0054L92.0558 83.5692C92.0095 83.4982 87.3287 76.7179 87.3358 74.0229C87.3338 73.9957 87.3338 73.9684 87.3358 73.9412C88.2257 74.3881 91.2336 78.5513 93.6469 82.3422L94.2485 81.9627C93.4263 80.647 91.44 76.8243 92.1127 74.9626C92.1412 74.8916 92.1625 74.8562 92.1625 74.8455C92.903 74.9378 95.3127 79.3846 97.1139 83.5159L97.1424 83.5726C98.3535 85.3977 99.4552 87.2922 100.442 89.2465C106.016 100.328 107.08 113.126 103.411 124.971Z" fill="#5E5C7F"/>
<path d="M76.326 209.792C70.7981 209.672 69.6839 203.278 66.2418 195.065C60.5856 181.589 54.78 162.525 58.1652 153.433C58.3575 152.922 58.5211 152.41 58.7027 151.897C58.8842 151.382 59.0587 150.832 59.1903 150.298C61.3617 147.926 63.6433 145.688 65.9001 143.56L65.9607 143.507C66.6385 142.931 67.2284 142.259 67.7119 141.513C69.4382 138.478 65.683 133.794 63.3906 132.073C62.5801 131.464 61.6779 130.985 60.7174 130.655C60.6925 130.39 60.664 130.134 60.6391 129.882C60.4185 127.732 60.0535 125.6 59.5463 123.499C59.5463 123.265 59.5463 123.038 59.5463 122.825C59.5639 122.402 59.6176 121.981 59.7065 121.566C59.7616 121.309 59.8379 121.056 59.9342 120.811C60.1393 120.223 60.5101 119.706 61.0022 119.322C62.9101 122.375 66.0247 120.329 67.3204 119.676C67.84 119.9 68.2815 120.12 68.5947 120.283C68.9079 120.446 69.1072 120.57 69.1072 120.57C69.8192 123.283 71.8873 127.619 74.8025 132.89C74.92 133.105 75.041 133.325 75.1584 133.546C77.6503 138.024 80.6901 143.12 83.9719 148.475L84.3707 149.12C95.149 166.624 108.298 186.39 112.424 194.26C119.454 207.618 90.9344 210.114 76.326 209.792Z" fill="#5E5C7F"/>
<path d="M68.5627 188.717L65.4125 255.658L47.2089 301.425L39.7588 318.738H69.9651L54.2426 313.38C54.2426 313.38 56.1684 310.018 56.7129 308.415L85.6771 262.669L96.8469 200.427C99.3386 199.6 68.5627 188.717 68.5627 188.717Z" fill="#5E5C7F"/>
<path d="M191.193 281.212L171.335 289.872L165.589 286.194L112.58 194.242L66.6619 192.182C78.0738 212.941 125.32 263.073 125.32 263.073L156.376 294.312L156.53 294.18L165.963 304.297L191.193 281.212Z" fill="#46CDCF"/>
<path d="M58.3537 79.9698C55.3488 79.9668 52.3767 80.5918 49.6293 81.8043C46.8819 83.0167 44.4202 84.7898 42.4034 87.0088C41.3877 85.7444 40.0666 84.7573 38.5638 84.1398C37.061 83.5224 35.4254 83.2947 33.8103 83.4783C32.1952 83.6618 30.6531 84.2505 29.3285 85.1893C28.0039 86.128 26.94 87.3862 26.2361 88.8461C25.5323 90.3059 25.2118 91.9198 25.3043 93.5366C25.3969 95.1535 25.8997 96.7205 26.7655 98.0913C27.6315 99.4619 28.8322 100.591 30.2554 101.374C31.6786 102.156 33.2778 102.567 34.9034 102.566C35.5564 102.567 36.2077 102.5 36.8469 102.367C37.0926 107.886 39.4659 113.097 43.4722 116.915C47.4787 120.733 52.8093 122.864 58.3537 122.864C58.7596 122.864 59.1582 122.864 59.5569 122.829C65.1472 122.508 70.3921 120.03 74.1789 115.921C77.9657 111.811 79.9962 106.394 79.8397 100.817C79.6832 95.2411 77.3519 89.945 73.3405 86.0527C69.3291 82.1605 63.9533 79.9785 58.3537 79.9698ZM69.9935 102.69C70.9993 103.848 72.1959 104.826 73.5317 105.584C73.6247 106.289 73.6652 107 73.6528 107.712L71.3354 108.176L70.7018 108.304L66.7864 109.08C67.9676 107.007 69.0392 104.874 69.9971 102.69H69.9935ZM71.6024 115.577C71.6024 115.598 71.5811 115.549 71.5597 115.435C70.5825 117.214 69.1203 118.682 67.3417 119.669C66.7312 119.986 66.0758 120.209 65.3982 120.329L65.3804 120.368C64.2552 120.573 63.0939 120.418 62.0628 119.924C61.6966 119.761 61.3483 119.56 61.0235 119.325C60.156 118.688 59.4342 117.874 58.9055 116.939C60.728 116.737 62.5504 115.166 64.2448 112.977C64.2464 112.985 64.2464 112.992 64.2448 112.999C64.4085 112.779 64.5759 112.552 64.7324 112.325L64.9069 112.08C65.0386 111.892 65.1668 111.705 65.2842 111.527C65.366 111.414 65.4444 111.297 65.5156 111.173C65.7363 110.836 65.9249 110.538 66.0638 110.314L66.1706 110.144C66.1919 110.109 66.2133 110.077 66.231 110.041L66.32 109.896L70.5097 109.063L71.6807 108.829L73.6314 108.442C73.5871 109.176 73.4933 109.905 73.3502 110.626C73.2967 110.896 73.2362 111.158 73.1722 111.421C73.8093 112.485 74.3362 113.329 74.3362 113.329C74.3362 113.329 71.6487 115.357 71.606 115.577H71.6024ZM63.8176 131.51C62.8589 130.794 61.7836 130.248 60.6391 129.896C57.8555 129.02 54.4418 129.113 50.4444 130.176C49.5034 130.428 48.5845 130.756 47.6965 131.155C46.7981 131.561 45.9329 132.035 45.1086 132.574C38.3099 137.024 34.5047 145.394 31.4221 153.784C26.7134 166.36 27.0654 180.262 32.4046 192.586C33.3497 194.74 34.4193 196.839 35.6083 198.87C36.7223 201.884 39.4597 208.821 41.0259 208.859C41.2038 208.859 41.5526 208.796 41.7662 208.288C42.1969 207.285 42.051 205.898 41.6986 204.554L42.1684 205.306C44.9129 209.678 45.7779 210.164 46.1872 210.164C46.2438 210.164 46.3002 210.155 46.3545 210.139C46.5681 210.093 46.8279 209.912 46.8635 209.338C46.9667 207.565 45.5465 204.413 44.2651 201.948C46.7212 204.823 49.9604 208.273 51.1029 208.048C51.2323 208.02 51.351 207.956 51.4445 207.863C51.5379 207.77 51.6023 207.651 51.6298 207.522C51.911 206.515 50.7861 204.437 49.3944 202.373L49.9461 202.926C55.6236 208.6 56.4707 208.206 56.8801 208.015C57.2361 207.848 57.3678 207.451 57.2752 206.842C56.9584 204.789 54.8654 202.039 52.6656 199.643C58.8664 204.32 59.6423 203.863 60.0126 203.642C60.219 203.522 60.4397 203.253 60.3186 202.667C59.6067 199.154 49.8713 191.388 48.7608 190.512C45.8562 188.224 46.3473 179.334 46.5681 176.663C47.3582 167.089 52.4841 158.932 58.7097 151.897C61.1658 149.12 63.7927 146.521 66.3948 144.096L66.4553 144.043C67.1871 143.418 67.8217 142.689 68.3383 141.879C70.2961 138.411 66.3593 133.418 63.8176 131.51ZM67.7119 141.518C67.2284 142.262 66.6383 142.935 65.9605 143.51L65.9 143.564C63.6433 145.691 61.3616 147.926 59.1903 150.301C52.4272 157.68 46.6997 166.33 45.8526 176.611C45.5607 180.156 45.219 188.604 48.2981 191.058C51.9821 193.975 59.0656 200.15 59.6138 202.81C59.6278 202.884 59.6361 202.96 59.6387 203.037C59.5979 203.052 59.5543 203.059 59.5106 203.058C58.368 203.058 52.9895 199.27 47.1376 194.327L46.6748 194.866C46.7674 194.944 55.9297 202.753 56.5633 206.947C56.5955 207.087 56.5955 207.234 56.5633 207.373C55.7339 207.685 50.6224 202.955 45.1728 196.845L44.6352 197.309C47.2871 200.43 51.3485 205.913 50.9535 207.334C50.9519 207.342 50.9519 207.348 50.9535 207.355H50.925C49.9853 207.355 45.76 202.77 42.2967 198.423L41.7164 198.827C41.7627 198.904 46.3438 206.413 46.1659 209.296C46.1686 209.335 46.1686 209.376 46.1659 209.416C45.276 208.969 42.2894 204.316 39.9153 200.061L39.2923 200.415C39.3208 200.469 42.14 205.671 41.1398 208.023C41.1191 208.07 41.0953 208.116 41.0686 208.161C40.3566 208.107 38.1888 203.739 36.2917 198.607L36.2668 198.551C35.0871 196.535 34.0281 194.452 33.0951 192.313C27.8288 180.156 27.4807 166.444 32.1235 154.039C35.1739 145.766 38.9079 137.513 45.5323 133.176C47.0945 132.136 48.8142 131.351 50.626 130.854C54.6304 129.79 58.012 129.722 60.7173 130.659C61.6778 130.989 62.58 131.468 63.3905 132.077C65.6828 133.798 69.4382 138.482 67.7119 141.518Z" fill="#5E5C7F"/>
<path d="M67.5303 112.839C66.9999 111.716 66.1595 110.766 65.1076 110.101C64.0558 109.435 62.8356 109.081 61.5895 109.08C61.1541 109.079 60.7199 109.123 60.2938 109.212C58.6975 109.53 57.2773 110.43 56.3093 111.734C55.3413 113.038 54.8947 114.654 55.0562 116.268C55.2177 117.882 55.976 119.379 57.1834 120.467C58.391 121.555 59.9614 122.156 61.5895 122.155C61.9004 122.156 62.211 122.134 62.5186 122.088C63.6716 121.926 64.7597 121.458 65.6688 120.733C66.2022 120.315 66.665 119.815 67.0392 119.251C67.6708 118.316 68.048 117.233 68.1342 116.11C68.2202 114.986 68.0123 113.859 67.5303 112.839ZM66.2133 119.183C65.8355 119.673 65.3797 120.099 64.8643 120.442C64.2252 120.877 63.5051 121.18 62.7463 121.332C61.8962 121.502 61.0188 121.481 60.1776 121.272C59.3364 121.063 58.5523 120.67 57.882 120.122C57.2118 119.574 56.6721 118.884 56.3019 118.103C55.9315 117.322 55.7401 116.469 55.7411 115.605C55.7396 114.384 56.1258 113.194 56.8446 112.204C57.4586 111.354 58.2916 110.684 59.2559 110.265C60.2202 109.847 61.2799 109.695 62.3233 109.827C63.3669 109.958 64.3554 110.368 65.1847 111.012C66.0141 111.656 66.6535 112.512 67.0356 113.488C67.3062 114.165 67.4439 114.887 67.4414 115.616C67.4423 116.908 67.0101 118.164 66.2133 119.183Z" fill="#46CDCF"/>
<path d="M258.725 318.013H9.2355V318.723H258.725V318.013ZM193.161 144.592C192.877 143.928 190.42 141.606 187.238 138.641L186.85 138.286C185.736 137.244 184.821 136.386 184.608 136.134C177.389 127.528 173.377 118.644 171.942 107.655C171.879 107.182 171.822 106.703 171.772 106.219C171.494 105.843 171.216 105.474 170.943 105.109C170.985 105.57 171.032 106.031 171.082 106.484C172.381 118.187 176.474 127.538 184.063 136.588C184.312 136.882 185.288 137.797 186.555 138.971L186.761 139.166C188.819 141.085 192.268 144.301 192.513 144.879C193.737 147.716 191.132 150.319 188.424 152.475C186.868 153.796 184.893 154.529 182.85 154.542C181.483 154.517 180.135 154.227 178.88 153.688C175.524 152.322 172.231 149.517 169.454 146.95C167.202 144.783 165.217 142.355 163.542 139.719C159.837 133.733 157.025 128.371 155.33 121.747C151.35 106.144 152.86 90.7536 159.694 77.2072C160.915 74.7898 162.272 72.4432 163.76 70.1787L163.788 70.1255C166.361 64.2566 169.173 59.3345 169.931 59.3345C169.985 59.3919 170.021 59.4633 170.035 59.5402C170.925 62.4375 167.319 68.3099 167.284 68.3702L167.889 68.7426C170.925 63.9162 174.691 58.6785 175.666 58.331C175.673 58.404 175.673 58.4777 175.666 58.5508C175.577 61.9765 169.843 70.3737 169.786 70.4588L170.348 70.895C174.655 66.0014 179.841 60.9125 180.703 61.2247C180.715 61.2474 180.723 61.2729 180.724 61.2991C181.034 63.051 176.179 68.9766 172.84 72.537L173.356 73.0263C173.385 72.9944 176.46 69.8844 179.699 66.9518C185.982 61.2779 186.819 61.7282 186.868 61.753C186.918 61.7779 186.953 61.8666 186.847 62.331C185.736 67.2248 174.965 75.5263 174.855 75.608L175.289 76.1718C182.461 70.7 189.117 66.5687 189.822 67.1539C189.822 67.1539 189.855 67.2709 189.794 67.5084C188.936 70.5937 180.582 77.186 176.267 80.2429H176.246C175.086 81.0796 174.089 82.7252 173.274 84.6933C173.182 84.9167 173.093 85.14 173.007 85.3705C173.239 85.4131 173.473 85.4628 173.719 85.5124C173.804 85.2854 173.894 85.0621 173.986 84.8457C174.752 83.023 175.662 81.5336 176.694 80.8031C176.826 80.7073 179.97 78.4697 183.191 75.7782C187.541 72.1469 189.99 69.4198 190.474 67.6787C190.659 67.0192 190.439 66.707 190.218 66.5581C189.862 66.3099 188.983 65.7283 181.72 70.6575L181.393 70.8809C184.174 68.1965 186.968 64.9801 187.533 62.4835C187.694 61.7743 187.579 61.331 187.202 61.1253C186.825 60.9197 185.861 60.4162 179.154 66.4801C178.824 66.778 178.496 67.0794 178.173 67.3773C180.023 64.9694 181.643 62.4375 181.422 61.1715C181.407 61.0279 181.349 60.8921 181.257 60.7809C181.165 60.6699 181.04 60.5886 180.902 60.5473C179.613 60.1927 175.591 64.1467 172.616 67.3241C174.3 64.5155 176.313 60.7175 176.371 58.5651C176.371 58.0402 176.225 57.7246 175.901 57.6288C175.577 57.5331 174.833 57.3026 170.893 62.909L170.18 63.9482C170.751 62.331 171.099 60.6112 170.707 59.3381C170.537 58.7813 170.213 58.6288 169.975 58.6288H169.943C168.163 58.6288 164.296 67.1396 163.126 69.8135C161.63 72.0995 160.265 74.4674 159.036 76.9059C152.124 90.6082 150.596 106.179 154.618 121.942C156.334 128.68 159.178 134.071 162.915 140.11C163.714 141.368 164.582 142.58 165.518 143.741C166.568 145.067 167.712 146.317 168.943 147.478C173.421 151.616 178.1 155.192 182.732 155.28H182.875C184.882 155.28 186.875 154.616 188.84 153.053C190.805 151.489 194.764 148.323 193.161 144.592ZM111.249 283.262L128.335 290.709L133.275 287.545L178.88 208.437L218.392 206.664C208.571 224.527 167.924 267.659 167.924 267.659L141.206 294.535L141.074 294.417L132.963 303.12L111.249 283.262ZM237.4 82.1577C236.441 79.6078 235.339 77.1133 234.1 74.6858C233.217 71.8879 230.255 62.9197 228.504 62.831C228.265 62.831 227.932 62.9161 227.7 63.4516C227.17 64.6821 227.344 66.4304 227.721 68.1006L227.116 66.9871C223.812 60.9976 223.101 61.1289 222.709 61.1997C222.378 61.26 222.186 61.5544 222.144 62.0792C221.962 64.2282 223.567 68.2212 224.923 71.1929C222.31 67.7176 218.736 63.3416 217.423 63.5651C217.279 63.5884 217.147 63.655 217.043 63.7558C216.938 63.8566 216.867 63.9868 216.84 64.1289C216.484 65.363 217.815 68.058 219.395 70.6468L218.516 69.6503C212.483 62.8842 211.496 63.2884 211.077 63.4764C210.657 63.6643 210.518 64.0828 210.6 64.792C210.891 67.3346 213.323 70.8206 215.796 73.7993L215.494 73.544C208.805 67.8701 207.884 68.3454 207.489 68.5511C207.257 68.6751 207.001 68.9623 207.112 69.6397C207.802 73.849 218.918 83.7499 219.391 84.179C222.446 86.8812 223.379 97.2467 222.977 101.084C221.293 117.087 216.085 128.226 205.559 138.318C205.296 138.574 204.082 139.482 202.676 140.535C202.032 141.017 201.416 141.478 200.836 141.917C198.273 143.85 196.428 145.304 196.137 145.819C194.143 149.365 197.761 152.939 199.501 154.66C201.586 156.726 203.844 157.57 206.208 157.57C206.459 157.57 206.712 157.57 206.969 157.543C211.119 157.234 215.559 154.478 219.883 151.276C222.406 149.329 224.686 147.087 226.675 144.598C231.046 138.992 234.456 133.928 236.89 127.428C242.6 112.172 242.768 96.5233 237.4 82.1577ZM236.243 127.159C233.84 133.573 230.462 138.588 226.13 144.142C225.221 145.286 224.246 146.377 223.207 147.407C222.046 148.589 220.799 149.684 219.477 150.683C215.177 153.876 210.778 156.595 206.723 156.801C204.342 156.925 202.096 156.177 200.021 154.139C197.56 151.702 195.25 148.844 196.778 146.145C197.006 145.737 199.131 144.088 201.134 142.57L203.121 141.081C204.605 139.971 205.777 139.095 206.072 138.811C216.729 128.588 222 117.318 223.703 101.133C224.097 97.3814 223.247 86.594 219.883 83.6258C215.925 80.1435 208.336 72.6965 207.817 69.5049C207.782 69.3892 207.782 69.266 207.817 69.1503C207.863 69.1262 207.914 69.1139 207.966 69.1149C209.179 69.1149 215.084 73.771 221.293 79.6825L221.787 79.1718C221.688 79.0761 211.877 69.6681 211.301 64.6821C211.247 64.207 211.343 64.1041 211.343 64.1041C211.343 64.1041 212.272 63.7105 217.907 70.044C220.809 73.3064 223.532 76.7321 223.557 76.764L224.122 76.3314C221.19 72.4305 217.003 66.0226 217.501 64.3133C217.507 64.2916 217.515 64.2704 217.522 64.2495C218.428 64.058 223.033 69.6503 226.777 74.9695L227.382 74.615C227.336 74.5263 222.546 65.558 222.83 62.1431C222.833 62.0698 222.846 61.9972 222.866 61.9267C223.799 62.3771 226.974 67.9872 229.472 73.115L230.113 72.8064C230.085 72.7461 227.133 66.5191 228.334 63.7353C228.359 63.6649 228.397 63.5999 228.447 63.5439C229.206 63.5792 231.477 68.7921 233.41 74.9306L233.431 74.9873C234.662 77.3985 235.758 79.8765 236.712 82.4094C242.027 96.6118 241.87 112.084 236.225 127.159H236.243Z" fill="#5E5C7F"/>
<path d="M201.779 108.063C198.512 103.08 196.735 102.055 195.781 101.506C195.026 101.069 194.871 100.977 194.714 99.0233C194.557 97.0694 191.485 93.7501 186.882 90.6757C183.209 88.2182 178.575 85.9238 174.015 84.8671C173.779 84.8102 173.545 84.7571 173.302 84.7146C170.274 84.0939 167.305 84.0479 164.699 84.8848C162.4 85.6223 161.054 86.7075 160.592 88.2004C159.542 91.58 163.201 96.2963 167.836 102.265C168.878 103.609 169.971 105.023 171.071 106.492C171.36 106.878 171.647 107.268 171.933 107.662C173.203 109.414 174.442 111.208 175.538 113.063C176.122 114.041 176.627 114.882 177.062 115.598C177.033 115.439 177.005 115.279 176.98 115.119C176.912 114.683 176.859 114.251 176.823 113.822C176.61 113.467 176.389 113.112 176.15 112.701C174.823 110.478 173.302 108.3 171.762 106.226C171.484 105.85 171.207 105.481 170.933 105.116C170.075 103.981 169.22 102.882 168.401 101.828C164.069 96.2538 160.331 91.4382 161.282 88.4097C161.674 87.1544 162.866 86.2217 164.927 85.5727C166.913 84.9344 169.693 84.7642 173.046 85.4061C173.277 85.4487 173.513 85.4983 173.758 85.5479C177.445 86.3564 181.781 88.126 186.497 91.2785C190.791 94.1474 193.881 97.3602 194.015 99.0801C194.191 101.318 194.471 101.58 195.44 102.133C196.344 102.655 198.02 103.626 201.199 108.467C202.58 110.57 202.979 112.722 202.416 114.892C200.95 120.403 193.578 124.23 193.517 124.269L193.486 124.286C193.329 124.389 193.172 124.484 193.019 124.581L193.333 125.223L193.859 124.893C195.279 124.123 196.625 123.225 197.878 122.208C199.822 120.641 202.306 118.13 203.117 115.073C203.716 112.697 203.278 110.343 201.779 108.063ZM164.927 85.5443C166.913 84.906 169.693 84.7358 173.046 85.3777C173.132 85.1472 173.221 84.9238 173.314 84.7003C170.284 84.0798 167.315 84.0336 164.71 84.8705C162.41 85.6082 161.065 86.6934 160.602 88.1863C159.552 91.5658 163.212 96.2822 167.846 102.25C168.889 103.594 169.981 105.009 171.082 106.477C171.032 106.024 170.985 105.563 170.943 105.102C170.085 103.967 169.23 102.867 168.412 101.814C164.08 96.2396 160.343 91.4239 161.293 88.3955C161.674 87.1401 162.866 86.2075 164.927 85.5443Z" fill="#5E5C7F"/>
<path d="M218.943 209.905C218.943 209.905 201.747 227.473 179.236 209.5C179.236 209.5 180.305 175.787 182.753 155.244C182.781 155.007 182.81 154.765 182.842 154.536C183.611 148.308 184.515 143.383 185.562 141.127C185.92 140.359 186.248 139.637 186.547 138.963C186.654 138.73 186.754 138.499 186.85 138.28C189.225 132.85 189.613 130.46 188.598 127.251C187.952 127.405 187.291 127.485 186.626 127.488C185.587 127.498 184.561 127.261 183.632 126.797C181.707 125.829 180.429 123.985 179.579 122.049C179.489 121.917 179.4 121.783 179.315 121.644C178.282 120.896 175.859 119.091 175.859 119.091C175.859 119.091 176.531 117.854 177.254 116.439C177.186 116.151 177.125 115.868 177.072 115.584C177.043 115.424 177.016 115.265 176.991 115.105C176.922 114.669 176.869 114.236 176.834 113.807C176.777 113.202 176.755 112.593 176.769 111.985C177.208 112.237 177.678 112.427 178.169 112.548C178.244 112.566 178.322 112.577 178.397 112.591V112.609C178.683 112.661 178.973 112.688 179.265 112.69C181.326 112.69 183.128 111.456 184.128 109.616C186.441 114.985 189.968 120.464 194.589 119.871C194.287 121.401 193.665 122.851 192.766 124.127L192.99 124.584L193.304 125.226C195.047 128.829 197.786 134.673 200.836 141.915C200.925 142.138 201.021 142.361 201.117 142.589C199.113 144.106 196.988 145.755 196.76 146.163C195.233 148.861 197.543 151.719 200.002 154.156C202.061 156.194 204.324 156.944 206.706 156.819C206.794 157.056 206.88 157.297 206.969 157.528C212.899 173.823 218.378 193.128 218.943 209.905ZM96.9609 53.2919H63.1451V54.0011H96.9609V53.2919ZM93.2093 36.6697L92.8909 37.304L102.856 42.2688L103.174 41.6345L93.2093 36.6697ZM172.925 16.4761L151.576 31.7371L151.991 32.3133L173.341 17.0523L172.925 16.4761ZM173.118 38.4562L160.668 40.9874L160.81 41.6825L173.26 39.1511L173.118 38.4562ZM128.641 87.6898H127.929V109.322H128.641V87.6898ZM136.789 84.3229L136.157 84.6477L142.209 96.3492L142.841 96.0243L136.789 84.3229ZM18.7004 122.91L17.3229 127.413C17.3229 127.413 12.0191 128.588 13.0015 128.783C13.9839 128.978 18.6968 130.35 18.6968 130.35L20.861 133.691V128.198L24.1998 127.02L20.861 126.244L18.7004 122.91ZM139.828 163.336L138.444 167.841C138.444 167.841 133.139 169.015 134.122 169.209C135.104 169.404 139.818 170.776 139.818 170.776L142.003 174.117V168.624L145.342 167.446L142.003 166.67L139.828 163.336ZM205.072 86.1119L204.004 89.658C204.004 89.658 199.828 90.58 200.601 90.7218C201.373 90.8638 205.086 91.9524 205.086 91.9524L206.787 94.573V90.2715L209.418 89.3495L206.787 88.7325L205.072 86.1119ZM181.935 267.321L180.866 270.867C180.866 270.867 176.691 271.79 177.464 271.931C178.236 272.073 181.948 273.162 181.948 273.162L183.651 275.782V271.481L186.281 270.559L183.651 269.941L181.935 267.321ZM131.709 29.8729H131.559C130.651 29.776 129.739 29.7275 128.826 29.7275H128.719V5.06387H128.008V29.7239C121.707 29.9174 115.695 32.3952 111.099 36.6921C110.964 36.8198 110.829 36.9475 110.701 37.0787C106.48 41.1875 103.788 46.605 103.069 52.4403C102.35 58.2756 103.646 64.1809 106.745 69.1846C109.843 74.1885 114.558 77.9926 120.115 79.9713C125.671 81.95 131.74 81.9854 137.32 80.0715C142.899 78.1578 147.659 74.4088 150.815 69.4415C153.972 64.4742 155.338 58.5844 154.687 52.7412C154.037 46.898 151.409 41.4492 147.236 37.2916C143.064 33.1341 137.595 30.5152 131.731 29.8659L131.709 29.8729ZM147.372 38.522C148.91 40.1777 150.217 42.0326 151.258 44.0363C150.605 44.7712 149.715 45.2565 148.742 45.4087C147.318 45.6108 145.79 45.0541 144.164 43.7916C143.097 42.9476 142.612 42.1533 142.769 41.4405C143.099 39.9547 146.026 38.8837 147.374 38.522H147.372ZM103.56 55.5968C103.554 51.1767 104.724 46.8339 106.952 43.0115C108.02 43.3129 111.391 44.4016 111.391 47.7953C111.391 52.1854 110.75 54.494 104.09 60.7494C103.736 59.0546 103.559 57.3279 103.56 55.5968ZM104.272 61.5508C111.391 54.916 112.103 52.3734 112.103 47.7953C112.103 43.3554 108.148 42.366 107.429 42.2242C108.348 40.7699 109.413 39.4129 110.608 38.1745C111.071 39.7348 113.719 41.937 118.507 44.7314C121.333 46.3804 122.625 48.4124 122.351 50.7598C121.814 55.3344 115.367 60.1218 112.178 61.1005C108.366 62.2707 108.294 67.9128 108.469 70.4802C106.488 67.8114 105.061 64.7758 104.272 61.5508ZM112.932 75.154C112.755 73.9696 112.238 69.6574 113.758 67.4163C114.104 66.9082 114.551 66.4773 115.073 66.1506C115.594 65.8241 116.178 65.609 116.788 65.519C120.194 64.9233 121.465 61.8984 122.483 59.4906C123.447 57.1926 124.07 55.916 125.53 56.299C128.021 56.9764 129.389 58.3167 129.414 59.2352C129.435 59.9445 128.655 60.37 127.989 60.5863C125.79 61.3168 120.112 65.551 117.553 70.7142C116.303 73.2285 116.001 75.5618 116.649 77.6647C115.333 76.9412 114.086 76.1008 112.922 75.154H112.932ZM117.56 78.1328C116.894 75.7639 117.119 73.2342 118.193 71.0192C120.568 66.2389 126.024 61.9799 128.221 61.253C129.904 60.6927 130.132 59.7317 130.118 59.2068C130.079 57.7883 128.263 56.3026 125.708 55.6111C123.572 55.0295 122.721 57.0543 121.821 59.1998C120.817 61.5863 119.685 64.2921 116.656 64.824C115.953 64.9292 115.281 65.179 114.681 65.5576C114.081 65.9361 113.567 66.4351 113.171 67.0226C111.526 69.4446 111.857 73.0333 112.064 74.42C111.062 73.5347 110.133 72.5718 109.284 71.5404C109.159 70.5121 108.38 63.0296 112.388 61.7956C115.823 60.7317 122.483 55.7884 123.066 50.8556C123.38 48.196 121.97 45.9335 118.88 44.1179C111.978 40.0859 111.249 38.2774 111.256 37.6887C111.255 37.6231 111.267 37.558 111.291 37.4972C113.296 35.5639 115.608 33.9739 118.133 32.7915L118.115 32.7417L118.774 32.4722V32.4971C121.698 31.2267 124.84 30.525 128.029 30.4296H128.385H128.833C129.569 30.4296 130.299 30.4616 131.022 30.5254V30.5502C130.407 31.85 129.64 33.0724 128.737 34.1921C128.623 34.334 128.506 34.4723 128.381 34.6105C128.257 34.7489 128.15 34.8695 128.025 34.9971C127.356 35.7034 126.61 36.3326 125.8 36.873C122.867 38.8199 123.665 40.6071 124.465 42.3378C124.928 43.359 125.409 44.4158 125.284 45.6427C125.284 45.6818 125.284 45.7172 125.284 45.7421C124.287 44.9087 121.276 38.5362 118.795 32.5112C118.574 32.607 118.357 32.7027 118.144 32.8056C118.329 33.2453 119.664 36.4582 121.123 39.6143C124.074 45.9974 124.907 46.5363 125.334 46.5363C125.375 46.54 125.417 46.54 125.459 46.5363C125.772 46.4938 125.957 46.2207 126.006 45.7278C126.146 44.3093 125.604 43.1144 125.127 42.0611C124.344 40.3341 123.778 39.0894 126.196 37.4758C126.848 37.0416 127.461 36.5516 128.029 36.0113C128.15 35.8943 128.27 35.7808 128.385 35.6567C128.498 35.5326 128.627 35.4049 128.74 35.2772C129.919 33.9519 130.895 32.4606 131.638 30.8516C131.684 30.7595 131.727 30.6637 131.77 30.5893C133.737 30.8154 135.67 31.2737 137.529 31.9545C135.867 33.0184 131.524 36.0929 131.304 39.5646C131.201 41.2065 132.015 42.6994 133.767 43.9973C137.529 46.8094 141.099 56.6394 138.395 63.4445C137.874 64.746 136.885 66.2567 135.083 66.0581C132.661 65.8266 130.217 66.0589 127.883 66.7425C125.939 67.3134 123.255 68.4589 121.536 70.6929C119.728 73.0369 119.4 75.9661 120.575 79.3953C119.543 79.0403 118.536 78.6186 117.56 78.1328ZM128.399 80.7711C126.038 80.7352 123.693 80.3664 121.436 79.6754C120.141 76.2604 120.368 73.388 122.105 71.1291C124.775 67.6609 130.748 66.2922 135.009 66.7637C136.761 66.9553 138.213 65.8737 139.056 63.7105C141.071 58.643 139.693 47.5434 134.194 43.4335C132.66 42.288 131.927 41.0044 132.015 39.6143C132.233 36.1283 137.405 32.8766 138.358 32.2807C141.536 33.5822 144.415 35.5125 146.823 37.9546C145.513 38.3482 142.484 39.4475 142.078 41.2986C141.858 42.3023 142.413 43.3306 143.726 44.3625C145.264 45.5647 146.752 46.1711 148.165 46.1711C148.397 46.1706 148.63 46.154 148.859 46.1215C149.903 45.957 150.867 45.4592 151.603 44.703C152.123 45.7753 152.563 46.8834 152.924 48.0187C151.839 48.3414 148.4 49.3414 145.478 49.9229C141.865 50.6322 142.477 57.7246 143.417 63.7992C144.007 67.6113 141.879 68.2284 136.194 69.8738C135.525 70.0652 134.813 70.2709 134.058 70.4979C127.673 72.4164 128.15 79.0158 128.399 80.7711ZM129.111 80.7711C128.91 79.4711 128.929 78.1468 129.164 76.8526C129.73 73.9341 131.442 72.0262 134.258 71.1788C135.012 70.9517 135.725 70.7462 136.393 70.5546C141.992 68.934 144.805 68.1184 144.122 63.6927C143.599 60.3027 142.206 51.2989 145.62 50.618C148.571 50.0294 152.027 49.0222 153.13 48.6996C153.611 50.3797 153.913 52.1055 154.032 53.8486C151.166 53.0152 149.182 53.2883 148.14 54.6642C146.659 56.6039 147.659 60.1821 148.635 61.6359C149.385 62.7636 148.044 67.5262 145.687 70.6752C144.808 71.8455 143.057 73.7284 141.203 73.1575C140.096 72.8206 139.13 72.9412 138.337 73.5121C136.418 74.9306 136.156 78.6364 136.123 79.6789C133.85 80.3741 131.491 80.7419 129.115 80.7711H129.111ZM136.842 79.4697C136.91 78.2676 137.234 75.2143 138.757 74.1043C139.37 73.654 140.099 73.5689 140.992 73.8454C142.701 74.3667 144.52 73.4199 146.254 71.1043C148.705 67.8276 150.233 62.7602 149.222 61.253C148.397 60.0153 147.464 56.7245 148.703 55.0968C149.567 53.9657 151.419 53.7955 154.066 54.611C154.066 54.9373 154.088 55.2671 154.088 55.5968C154.083 60.8731 152.416 66.0146 149.323 70.2973C146.23 74.5801 141.865 77.7882 136.845 79.4697H136.842Z" fill="#5E5C7F"/>
</svg>
