<svg width="276" height="276" viewBox="0 0 276 276" fill="none" xmlns="http://www.w3.org/2000/svg">
<path d="M60.0332 73L60 73.0366C60.021 73.063 60.0395 73.0911 60.0554 73.1207L60.0332 73ZM182 184.84L181.539 185L181.982 184.806L182 184.84Z" fill="#5E5C7F"/>
<path d="M22 0V92.095C22.2411 91.9817 22.4858 91.8684 22.7306 91.7625V0.73077H242.27V170.268H22.7306V107.175C22.4785 107.437 22.2338 107.704 22 107.975V171H243V0H22Z" fill="#5E5C7F"/>
<path d="M26 60L29.2454 40.5987C30.6991 40.3626 32.0945 40.163 33.4321 40C34.3499 41.0628 38.0407 45.7289 36.7162 50.7209C35.717 54.4907 32.1075 57.612 26 60Z" fill="#5E5C7F"/>
<path d="M41.7262 50.2476C41.6392 51.4008 41.3836 52.5347 40.9677 53.6127C40.1634 55.62 38.8643 57.3881 37.193 58.7503C36.04 59.7032 34.7834 60.5219 33.4475 61.1907C31.0382 62.3773 28.4999 63.2776 25.8836 63.8732L26.3176 60.9815C30.3585 59.3057 33.3138 57.2727 35.1835 54.8825C36.0011 53.8614 36.6286 52.7004 37.0362 51.455C37.12 51.2017 37.1893 50.9485 37.255 50.6916C38.4803 45.5908 35.5118 40.9413 34.2937 39.3156C35.9129 39.1346 37.4483 39.0294 38.8998 39L38.6847 39.1431C40.1611 41.5329 41.1527 44.1932 41.6023 46.9706C41.7668 48.0547 41.8085 49.1541 41.7262 50.2476ZM34.6108 94.7684C34.5039 94.5285 34.3821 94.2957 34.2462 94.0712C33.7494 93.2539 33.1767 92.4859 32.5357 91.7776C31.7667 90.8384 30.7632 90.1221 29.628 89.7023C28.493 89.2824 27.2673 89.1741 26.0768 89.3886C24.9987 89.5564 23.9461 89.861 22.944 90.295C22.6997 90.3941 22.4553 90.5005 22.2147 90.6143C20.6698 91.3577 19.1772 92.2062 17.7471 93.1537C15.8429 94.4328 14.0981 95.9372 12.55 97.6345C9.16199 101.451 6.47783 104.926 4.42086 109.469C-0.385906 120.141 -1.3086 131.396 1.82784 141.987C2.38326 143.863 3.04071 145.709 3.79722 147.513C4.57039 150.775 6.04382 156.229 7.27646 156.379C7.43222 156.394 7.58853 156.356 7.72061 156.272C7.85268 156.188 7.95304 156.061 8.00591 155.913C8.37053 155.208 8.42164 154.239 8.32316 153.245C8.76444 154.214 9.22764 155.168 9.64701 155.943C10.4786 157.466 10.9052 157.839 11.2736 157.839H11.3793C11.5726 157.803 11.817 157.656 11.8936 157.146C12.0614 156.023 11.6638 154.067 10.701 151.33L10.6792 151.282C14.1365 156.534 14.9024 156.445 15.2306 156.419C15.3526 156.404 15.4677 156.354 15.5621 156.274C15.6565 156.194 15.7263 156.09 15.7631 155.972C16.022 155.26 15.5734 153.84 14.7967 152.173C18.6333 157.179 19.432 156.911 19.7347 156.808C20.0373 156.705 20.2088 156.327 20.2088 155.759C20.1358 154.17 18.987 152.001 17.6339 149.979C20.599 152.834 21.7296 153.356 22.2183 153.381C22.3275 153.392 22.4377 153.372 22.5355 153.322C22.7398 153.23 22.9768 153.007 22.9222 152.449C22.8088 151.765 22.5701 151.108 22.2183 150.512C20.3036 146.929 15.1576 141.612 14.8914 141.337C14.0417 140.459 13.4326 138.401 13.1446 135.579C12.9268 133.433 12.9524 131.268 13.2211 129.128C14.3152 122.889 16.0257 117.95 18.615 113.568C19.6684 111.775 20.8741 110.077 22.2183 108.493C22.4517 108.21 22.696 107.932 22.9477 107.653C24.3305 106.111 25.8224 104.672 27.4117 103.348C27.4686 103.298 27.5296 103.252 27.594 103.212C27.7545 103.095 27.9988 102.933 28.2869 102.742L28.4546 102.633V102.431C28.4182 98.4271 31.675 96.317 34.4103 95.2528L34.7749 95.1134L34.6108 94.7684ZM27.7217 102.244C27.4882 102.398 27.3022 102.526 27.1672 102.611C27.0878 102.662 27.0123 102.718 26.9412 102.779C25.5268 103.956 24.187 105.221 22.9295 106.566C22.6779 106.83 22.4334 107.099 22.2 107.37C20.6051 109.168 19.187 111.118 17.9658 113.19C15.3363 117.649 13.5895 122.673 12.4953 128.996C12.2215 131.202 12.1958 133.433 12.4187 135.646C12.6266 137.77 13.1263 140.57 14.3699 141.847C16.4706 144.009 21.9776 150.145 22.1964 152.508C22.1964 152.567 22.1964 152.61 22.1964 152.64C21.4962 152.589 18.5749 150.151 13.615 144.772L13.0753 145.263C16.0986 148.735 19.3664 153.318 19.4721 155.781C19.4771 155.88 19.4698 155.978 19.4502 156.075C18.7537 155.946 16.0767 152.984 11.7076 146.629L11.0913 147.043C14.286 152.206 15.2416 154.845 15.0592 155.649C14.7929 155.52 13.7609 154.75 10.7594 150.093C10.03 148.992 9.48288 148.06 9.27138 147.712L9.19482 147.59L8.55658 147.936C8.55658 147.936 9.28603 149.586 9.98618 151.565C10.8834 154.107 11.2846 155.968 11.1569 156.977C10.8075 156.55 10.5066 156.085 10.2597 155.59C9.20209 153.648 7.91107 150.574 7.22546 148.893L6.55076 149.16C6.72579 149.63 8.23933 153.796 7.32757 155.576C7.32449 155.59 7.31821 155.604 7.30929 155.616C6.66377 155.12 5.36544 150.999 4.49015 147.315V147.256C3.73575 145.468 3.0819 143.639 2.53171 141.777C-0.539077 131.348 0.3435 120.28 5.10651 109.774C7.1196 105.315 9.76377 101.891 13.1299 98.1225C14.6219 96.4791 16.3041 95.0216 18.1409 93.7812C19.4507 92.9168 20.8111 92.1324 22.2147 91.4326C22.4553 91.3189 22.6997 91.2052 22.944 91.0987C23.9769 90.6282 25.0671 90.2976 26.1862 90.1153C27.255 89.9145 28.3578 90.0077 29.3783 90.3848C30.3989 90.762 31.2994 91.4093 31.985 92.2584C32.5964 92.9406 33.1445 93.6776 33.6225 94.4601C33.6772 94.5519 33.7246 94.6437 33.7793 94.7391C31.376 95.7299 27.791 97.9464 27.7217 102.244ZM229 275.266H9.08543V276H229V275.266Z" fill="#5E5C7F"/>
<path d="M9 159.426L9.70949 276H37.0831L21.7999 270.064L41 167.032C41 167.032 17.7772 151.055 9 159.426Z" fill="#5E5C7F"/>
<path d="M8 164.144C9.30051 164.46 60.4459 214.762 60.4459 214.762L35.9691 251.478L49.4861 268L44.0064 252.947L82 216.964L48.3682 162L8 164.144Z" fill="#46CDCF"/>
<path d="M65.304 78.5208C65.1901 77.6887 64.1721 70.8231 61.7761 67.9383C61.7547 67.9055 61.7287 67.8759 61.6988 67.8503C61.5295 67.6508 61.3426 67.4668 61.1403 67.3005C60.7104 66.956 60.4053 67.0256 60.2142 67.1429C59.7254 67.4655 59.7622 68.8254 60.0084 70.4126C60.0598 70.7388 60.1186 71.076 60.1848 71.4169L60.2069 71.5379C60.1911 71.5081 60.1727 71.4799 60.1517 71.4536C60.0305 71.2337 59.8907 71.0064 59.7474 70.7791C58.8581 69.3606 57.7005 67.909 56.3922 67.2163C55.8777 66.9413 55.4808 66.9339 55.2235 67.1979C54.8928 67.5461 55.0507 68.4442 55.4587 69.5768C55.0626 69.1365 54.6217 68.7385 54.1431 68.3892C53.9629 68.2609 53.408 67.8724 53.0405 68.2132C52.6731 68.5541 52.8789 69.7894 53.7756 71.8788C53.0283 71.0694 52.1606 70.3796 51.203 69.8335C50.9679 69.7051 50.2623 69.3129 49.8249 69.7564C49.3876 70.1999 49.6669 71.3363 50.2182 72.7256C50.3542 73.0665 50.5085 73.4183 50.6739 73.7776C50.7988 74.0488 50.9274 74.3237 51.0414 74.5987C50.7253 74.2321 50.3835 73.8655 50.0234 73.4697C49.6081 73.0262 49.1635 72.5606 48.6894 72.0914C48.4347 71.7873 48.0899 71.5716 47.7045 71.4756H47.5942L47.3516 71.4316L47.2818 71.7798C47.0429 72.9052 47.811 74.3237 48.4211 75.4673C48.5681 75.7349 48.704 75.9879 48.8069 76.2005C49.2957 77.2086 51.2692 81.6695 51.7469 83.11C51.7469 83.1687 51.7874 83.2274 51.8021 83.2897C52.5371 85.676 52.3387 89.0299 51.2508 91.9001C50.0969 94.9754 47.3223 97.7173 43.7317 96.9035L43.5333 96.8559C42.35 96.5165 41.2484 95.9402 40.2956 95.1624C40.1817 95.0671 39.9869 94.8618 39.7811 94.6419C38.9652 93.7768 38.3111 93.128 37.6791 93.2673C37.1167 93.3956 36.5765 93.5422 36.0693 93.7072C35.2457 93.97 34.4465 94.3036 33.6806 94.7042C32.904 95.1109 32.1817 95.6133 31.5307 96.1997C30.7114 96.9237 30.0606 97.8174 29.6239 98.8185C29.1872 99.8194 28.975 100.904 29.0023 101.995C29.0001 102.256 29.0123 102.517 29.0391 102.776C29.4617 107.332 31.538 112.816 35.9628 113.277C36.9848 113.381 38.0115 113.433 39.0387 113.431C41.0827 113.429 43.1227 113.25 45.1356 112.896C45.3488 112.86 45.5546 112.819 45.7641 112.776C60.3428 109.74 67.2702 92.7725 65.304 78.5208ZM61.0778 99.4914C58.6229 104.286 53.9667 110.287 45.6685 112.021C45.4443 112.068 45.2202 112.112 44.9849 112.152C42.0276 112.678 39.0122 112.802 36.0216 112.519C33.5336 112.259 30.3915 109.524 29.7484 102.676C29.7133 102.294 29.7034 101.91 29.719 101.526C29.9174 97.2078 33.6843 95.2247 36.3561 94.356C36.9073 94.1764 37.4108 94.048 37.826 93.9527C38.109 93.9527 38.9029 94.7958 39.2041 95.1185C39.3925 95.3286 39.5938 95.527 39.8069 95.7122C40.9003 96.6106 42.1809 97.2543 43.5554 97.5963L43.6877 97.622C47.6456 98.4394 50.6702 95.474 51.9271 92.1236C52.6023 90.3085 52.9518 88.3891 52.9597 86.4531C52.9711 85.3641 52.8326 84.2787 52.5481 83.2274C52.5077 83.0954 52.471 82.9671 52.4305 82.8608C51.8976 81.2993 49.8764 76.754 49.4354 75.8632C49.3214 75.6323 49.1818 75.3721 49.0348 75.0898C48.6011 74.2908 48.0426 73.257 47.9322 72.4213L48.1161 72.6009C49.8296 74.2971 51.413 76.1191 52.8531 78.0515L53.4742 77.6557C52.7612 76.4241 52.1181 75.2071 51.5963 74.1258C51.4456 73.8032 51.2986 73.4953 51.17 73.2057C50.4938 71.6918 50.13 70.5776 50.2733 70.2733C50.4505 70.2981 50.62 70.3619 50.7694 70.4602C52.144 71.2839 53.3307 72.3851 54.2533 73.6932C54.4297 73.9315 54.5914 74.1661 54.7384 74.3897C55.0288 74.8296 55.264 75.2218 55.433 75.526C55.5396 75.7386 55.6535 75.9549 55.7637 76.1748L56.4289 75.8559C56.4068 75.812 56.2856 75.5407 56.0614 75.1228C55.9144 74.8296 55.7711 74.5327 55.6241 74.2357C55.5102 74.0084 55.4036 73.7776 55.2971 73.5503C54.301 71.4499 53.5109 69.4962 53.4963 68.8511C53.5599 68.8863 53.6213 68.9255 53.68 68.9683C54.8891 69.8298 56.0283 71.3876 56.8736 72.7549C56.9177 72.8306 56.9581 72.9076 56.9948 72.9857C57.1088 73.2057 57.2264 73.422 57.3404 73.6345C57.7078 74.2908 58.0386 74.9102 58.3509 75.4673L59.0088 75.1301C58.972 75.0531 58.6155 74.2908 58.0349 73.2754C57.921 73.0738 57.7924 72.8612 57.6674 72.6412C57.6432 72.5933 57.6162 72.5468 57.5866 72.5019C56.4436 70.2733 55.5946 68.2499 55.7233 67.7367C55.8293 67.7599 55.931 67.7995 56.0247 67.854C57.2485 68.5029 58.373 69.9654 59.2219 71.3693C59.3616 71.5916 59.4902 71.8116 59.6078 72.0291C59.9569 72.6412 60.2399 73.213 60.4604 73.6675C60.7471 74.2687 60.9051 74.6646 60.9087 74.6793L61.6107 74.4521C61.3681 73.5357 61.1439 72.5716 60.9675 71.6662C60.8904 71.2776 60.8242 70.9038 60.7618 70.5446C60.6846 70.0936 60.6258 69.6685 60.578 69.2983C60.4891 68.8049 60.4891 68.2997 60.578 67.8064C60.6076 67.824 60.6358 67.8436 60.6625 67.865C60.7736 67.9524 60.8781 68.048 60.9749 68.1509C61.1922 68.3604 61.3891 68.5899 61.563 68.8364C63.1946 71.208 64.2126 75.8889 64.5947 78.6161C65.5356 85.5623 64.2273 93.3626 61.0778 99.4914ZM261.311 206.738C261.212 206.609 261.116 206.489 261.013 206.371C253.191 196.442 242.846 188.785 231.053 184.195C219.259 179.605 206.448 178.249 193.952 180.269L193.312 180.375C189.31 181.06 185.375 182.091 181.552 183.458L181.092 183.619H181.067C158.282 191.922 140.988 211.544 136.104 235.583C136.056 235.828 136.004 236.07 135.956 236.316C133.628 248.49 134.574 261.063 138.698 272.754L138.782 273H271.924L272.009 272.754C275.908 261.732 276.973 249.911 275.104 238.373C273.234 226.835 268.492 215.948 261.311 206.712V206.738ZM273.556 234.23C270.352 235.711 267.262 237.426 264.313 239.361C257.901 243.584 253.832 247.884 252.218 252.14C251.663 252.14 250.157 252.055 249.363 250.941C248.404 249.607 248.713 247.155 250.242 243.852C252.95 237.987 252.921 234.42 252.891 231.265C252.891 229.26 252.862 227.364 253.564 225.113C255.156 220.044 262.861 213.963 264.588 212.651C268.789 219.285 271.822 226.587 273.556 234.241V234.23ZM233.998 186.211C232.234 188.854 221.745 204.693 219.059 212.06C216.119 220.088 213.271 224.238 206.6 223.186C206.414 223.155 206.237 223.079 206.086 222.967C205.934 222.854 205.812 222.706 205.73 222.537C204.825 220.884 204.965 215.572 210.78 199.652C213.936 190.991 217.475 182.835 218.156 181.278C223.615 182.283 228.933 183.937 233.998 186.203V186.211ZM169.031 190.243C170.354 191.936 178.428 201.763 176.749 206.768C176.271 208.234 175.011 209.187 173.008 209.638C166.65 211.071 156.249 218.578 150.608 222.926C144.728 227.459 139.385 232.137 137.066 234.52C139.129 225.37 143.024 216.73 148.518 209.119C154.01 201.508 160.988 195.081 169.031 190.225V190.243ZM135.431 249.507C135.425 244.936 135.878 240.375 136.783 235.894C137.999 234.409 143.71 229.185 150.964 223.581C156.577 219.241 166.93 211.749 173.177 210.345C175.448 209.832 176.889 208.703 177.461 206.987C179.3 201.452 171.321 191.357 169.942 189.69C173.503 187.598 177.245 185.831 181.122 184.408C182.592 188.018 189.236 205.348 184.584 214.512C183.15 217.339 180.739 219.15 177.428 219.89C169.883 221.58 160.564 228.787 149.749 241.308C144.874 246.98 140.314 252.912 136.088 259.079C135.651 255.907 135.431 252.709 135.431 249.507ZM139.289 272.293C137.918 268.375 136.906 264.341 136.264 260.24C137.871 257.836 160.479 224.431 177.587 220.605C181.129 219.809 183.702 217.87 185.242 214.839C187.49 210.411 187.538 203.776 185.404 195.115C184.461 191.384 183.265 187.722 181.82 184.154C185.559 182.821 189.406 181.811 193.319 181.138C193.389 187.003 193.554 192.017 193.686 196.452C194.422 219.428 194.577 223.578 177.34 232.009C157.392 241.785 140.918 269.727 139.432 272.293H139.289ZM147.947 272.293H140.293C142.704 268.181 158.612 242.004 177.668 232.669C195.334 224.014 195.179 219.26 194.429 196.427C194.283 191.962 194.124 186.933 194.062 181.01C197.796 180.405 201.572 180.102 205.355 180.104H205.722C206.616 180.607 207.865 182.512 207.979 184.69C208.346 191.676 204.91 205.477 199.604 218.251C193.33 233.354 185.76 244.112 178.829 247.773C167.373 253.912 157.095 262.023 148.473 271.732C148.238 271.978 148.069 272.169 147.947 272.293ZM148.936 272.293L149.003 272.223C157.561 262.579 167.763 254.522 179.138 248.422C186.219 244.688 193.911 233.793 200.25 218.538C205.594 205.672 209.07 191.738 208.68 184.657C208.559 182.366 207.693 180.793 206.751 180.119H207.005C210.489 180.2 213.961 180.54 217.394 181.134C216.567 183.04 213.146 190.973 210.074 199.389C205.337 212.376 203.658 220.283 205.075 222.878C205.208 223.147 205.405 223.381 205.647 223.559C205.889 223.737 206.171 223.853 206.468 223.9C207.158 224.011 207.855 224.068 208.552 224.073C209.702 224.103 210.846 223.894 211.911 223.46C212.975 223.026 213.938 222.375 214.738 221.551C216.53 219.761 218.027 216.995 219.735 212.299C222.432 204.909 233.127 188.81 234.667 186.508C235.332 186.812 235.99 187.131 236.641 187.457C235.34 191.175 222.914 225.799 208.159 236.066L205.296 238.053C189.494 249.028 169.796 262.84 167.598 272.289L148.936 272.293ZM168.337 272.293C170.472 263.129 190.846 248.984 205.73 238.658C206.7 237.983 207.659 237.32 208.585 236.671C223.414 226.357 235.836 192.003 237.313 187.794L238.206 188.261C238.834 189.037 239.511 191.192 238.768 195.225C237.328 203.072 231.859 216.624 224.847 229.747C217.567 243.36 210.643 252.646 206.777 253.972C201.199 255.893 196.145 260.824 192.889 264.602C190.819 267.019 188.923 269.58 187.215 272.264L168.337 272.293ZM188.098 272.293C189.831 269.596 197.788 257.854 207.031 254.699C211.121 253.287 218.027 244.101 225.498 230.139C232.55 216.943 238.04 203.322 239.5 195.404C240.062 192.333 240.028 190.202 239.393 188.938C243.884 191.426 248.088 194.398 251.929 197.802C244.814 201.992 237.937 216.58 232.878 227.302C230.947 231.4 229.279 234.937 227.908 237.287C226.693 239.44 225.589 241.655 224.601 243.922C221.577 250.519 218.721 256.751 209.751 259.478C205.568 260.743 202.885 262.751 201.772 265.446C200.493 268.558 201.732 271.542 202.099 272.293H188.098ZM202.926 272.293C202.495 271.34 201.349 268.367 202.452 265.717C203.477 263.239 206.002 261.377 209.956 260.181C219.25 257.37 222.172 250.985 225.258 244.226C226.255 242.056 227.28 239.809 228.537 237.653C229.929 235.278 231.606 231.726 233.546 227.613C238.606 216.874 245.526 202.215 252.501 198.315C255.313 200.863 257.912 203.637 260.27 206.606C255.288 208.63 246.949 219.648 243.274 227.951C241.76 231.367 240.289 235.952 241.881 238.401C245.049 243.287 225.663 264.426 217.78 272.293H202.926ZM229.059 272.293C234.454 265.387 243.641 254.819 245.916 255.208C246.033 255.208 246.162 255.281 246.247 255.549C246.919 257.55 245.28 259.442 243.836 261.106C242.733 262.356 241.819 263.436 241.999 264.431C242.094 264.932 242.461 265.332 243.101 265.654C243.382 265.77 243.63 265.954 243.822 266.189C244.014 266.424 244.145 266.703 244.203 267C244.57 268.902 242.271 271.685 241.744 272.293H229.059ZM252.678 272.293H242.741C243.63 271.193 245.313 268.76 244.971 266.867C244.892 266.459 244.715 266.076 244.455 265.75C244.194 265.426 243.858 265.169 243.476 265.002C243.045 264.786 242.811 264.551 242.741 264.288C242.612 263.642 243.476 262.645 244.398 261.586C245.89 259.863 247.75 257.715 246.97 255.314C246.916 255.104 246.802 254.914 246.642 254.766C246.481 254.619 246.281 254.522 246.067 254.486C242.63 253.906 230.014 269.973 228.207 272.293H218.835C220.705 270.39 226.494 264.426 231.881 257.997C240.701 247.459 244.292 240.732 242.517 237.998C241.415 236.301 241.932 232.834 243.969 228.237C247.937 219.263 256.398 208.762 260.763 207.2C261.971 208.762 263.115 210.373 264.195 212.035C262.513 213.3 254.571 219.495 252.88 224.89C252.145 227.25 252.145 229.204 252.174 231.268C252.204 234.344 252.233 237.833 249.602 243.541C247.934 247.151 247.665 249.772 248.797 251.37C249.764 252.711 251.425 252.873 252.174 252.873C252.297 252.874 252.42 252.868 252.543 252.854L252.773 252.832L252.847 252.616C256.21 243.232 271.715 235.89 273.743 234.967C273.935 235.835 274.111 236.712 274.254 237.594C273.008 238.614 258.753 250.391 261.737 255.959C264.247 260.714 254.467 270.548 252.664 272.293H252.678ZM271.421 272.293H253.74C255.577 270.533 265.173 260.886 262.354 255.625C261.252 253.528 262.998 249.856 267.44 244.996C269.613 242.666 271.929 240.473 274.375 238.43C274.966 242.089 275.263 245.791 275.264 249.497C275.273 257.257 273.969 264.965 271.406 272.293H271.421ZM104.745 130.436H89.6767V30H104.745V130.436ZM90.4116 129.703H104.009V30.7332H90.4116V129.703ZM125.692 130.436H110.624V41.7298H125.692V130.436ZM111.359 129.703H124.957V42.4629H111.359V129.703ZM146.64 130.436H131.571V41.7298H146.64V130.436ZM132.307 129.703H145.904V42.4629H132.307V129.703Z" fill="#5E5C7F"/>
<path d="M159.724 137.364H80.8445V136.998C80.8445 136.75 80.661 112.05 80.5694 87.5774C80.3822 37.9185 80.7197 37.5823 80.9361 37.3595L81.0463 37.2499H81.2076V37.9806C81.2777 37.9819 81.3464 37.9615 81.4042 37.9222C81.4621 37.883 81.5062 37.8267 81.5306 37.7614C81.0022 39.6577 81.3214 103.047 81.5709 136.633H159.717L159.724 137.364ZM199.347 23C192.889 23 186.576 24.9071 181.206 28.4804C175.837 32.0536 171.652 37.1324 169.181 43.0744C166.709 49.0164 166.062 55.5549 167.322 61.863C168.582 68.171 171.692 73.9652 176.258 78.5131C180.825 83.061 186.643 86.1581 192.977 87.4129C199.311 88.6676 205.877 88.0237 211.843 85.5624C217.809 83.1011 222.909 78.933 226.497 73.5854C230.085 68.2376 232 61.9505 232 55.5188C231.991 46.897 228.548 38.6307 222.427 32.5342C216.305 26.4375 208.004 23.0086 199.347 23ZM199.347 87.307C194.903 87.3092 190.507 86.3845 186.442 84.5922C182.377 82.7999 178.735 80.18 175.75 76.9009L199.164 56.1838L207.297 86.3131C204.7 86.977 202.029 87.3109 199.347 87.307ZM207.969 86.1231L199.53 54.8539L175.246 76.3528C170.714 71.1526 168 64.6273 167.513 57.7585C167.024 50.8897 168.789 44.0489 172.542 38.265C176.294 32.4812 181.83 28.0671 188.318 25.6868C194.806 23.3066 201.895 23.0888 208.518 25.0664C215.141 27.0438 220.94 31.1097 225.043 36.6523C229.147 42.1948 231.331 48.9144 231.269 55.8C231.207 62.6857 228.902 69.3652 224.7 74.8337C220.497 80.3023 214.627 84.264 207.969 86.1231ZM38.7557 39.8625C40.173 42.1709 41.1413 44.7243 41.6101 47.3894C41.7833 48.4261 41.8521 49.4775 41.8155 50.5279C41.7579 51.95 41.4679 53.3532 40.9569 54.6824C40.0003 57.029 38.4059 59.0635 36.3526 60.5576C35.1733 61.4415 33.9073 62.2041 32.5737 62.834C30.2026 63.9487 27.718 64.8062 25.1627 65.3917L25.0526 64.9423L23.2439 76.7111C26.2451 78.2789 29.375 79.5892 32.5994 80.6281C31.4437 83.0944 30.0899 86.0649 28.6151 89.4337C25.8084 95.9046 22.5541 103.844 19.4833 112.501C17.0216 119.442 14.6736 126.826 12.7474 134.306C11.511 139.125 10.4397 143.981 9.62886 148.768C9.56281 149.134 9.50053 149.524 9.44546 149.904C9.20089 151.337 8.99422 152.762 8.82545 154.183C8.3925 157.548 8.09164 160.858 8 164.078C8 164.078 25.7203 182.178 48.9257 163.66C48.9257 163.66 48.0158 134.489 45.9062 113.329C45.8842 113.084 45.8585 112.84 45.8292 112.599C45.609 112.646 45.3779 112.69 45.1505 112.73C42.1968 113.255 39.1853 113.378 36.1985 113.095C33.7 112.866 30.5815 110.129 29.9394 103.303C29.9014 102.922 29.8905 102.539 29.9065 102.156C30.1046 97.852 33.8652 95.8754 36.536 95.0094C37.079 94.8304 37.5816 94.7025 38.0036 94.6074H38.0256C38.308 94.6074 39.1042 95.4478 39.4051 95.7694C39.592 95.9788 39.7917 96.1764 40.003 96.3613C41.1954 97.3076 42.9088 97.684 44.1452 97.9654H44.1892C44.1342 97.695 43.7416 97.7241 43.6903 97.4684C43.4099 96.0127 42.9821 94.5889 42.4135 93.2191C39.9114 87.8516 38.7887 84.9066 38.7446 82.3307C43.8186 83.5073 48.5258 84.0224 51.9525 83.9457C51.9367 83.8848 51.9171 83.825 51.8937 83.7666C51.4058 82.3307 49.4393 77.884 48.9587 76.8792C48.8522 76.66 48.7165 76.4079 48.5734 76.1485C47.9607 75.0085 47.1977 73.5908 47.4325 72.4727L47.5022 72.1256L47.7406 72.1694H47.858C48.2429 72.2651 48.5872 72.4801 48.8412 72.7833C49.3109 73.251 49.7548 73.7151 50.1694 74.1572C50.5363 74.5481 50.8738 74.9244 51.1856 75.2825C51.0535 75.0085 50.9251 74.7345 50.7968 74.4641C50.6353 74.0987 50.4812 73.7552 50.3454 73.4154C49.7951 72.0306 49.542 70.8797 49.9566 70.4559C50.3711 70.032 51.0939 70.4047 51.3287 70.5326C52.2847 71.077 53.1509 71.7647 53.8969 72.5714C53.0201 70.4888 52.7743 69.283 53.1631 68.9176C53.5521 68.5522 54.0951 68.9651 54.2638 69.0929C54.7417 69.4411 55.1818 69.8379 55.5772 70.2768C55.1663 69.1478 55.0123 68.2526 55.346 67.9054C55.6029 67.6423 55.9918 67.6497 56.5128 67.9054C57.8115 68.5961 58.9709 70.0429 59.8587 71.457C59.9505 71.3364 60.0348 71.2158 60.1193 71.0916C59.8734 69.5095 59.8367 68.1685 60.3247 67.8324C60.5081 67.7155 60.8199 67.6461 61.2492 67.9895C61.452 68.1543 61.6387 68.3377 61.8068 68.5376C61.8998 67.9482 61.9768 67.3525 62.038 66.7509C63.3918 54.4047 59.7157 39.6578 38.7557 39.8625ZM50.4592 65.3368C50.4592 65.3551 50.4592 65.3368 50.4299 65.2492C49.6812 66.939 48.5423 68.4288 47.1059 69.5972C46.9073 69.7555 46.7003 69.9031 46.4859 70.0393C46.1677 70.2439 45.8355 70.4259 45.4917 70.5837C45.3708 70.6692 45.2402 70.7404 45.1027 70.7957C44.875 70.9142 44.6253 70.9851 44.369 71.0039C44.369 71.0039 44.369 70.9856 44.369 70.9747C43.577 71.1767 42.7499 71.2004 41.9475 71.0441C39.4087 70.5435 37.545 68.2965 36.7232 65.2601C37.2001 65.0591 37.6953 64.8253 38.1907 64.5659C38.5098 64.3979 38.84 64.2187 39.1666 64.0252C43.0885 61.716 47.1719 57.4483 46.9335 49.8338C49.7402 50.8203 51.5965 54.0722 51.8093 58.0365L50.4262 58.559L49.7511 58.8112L46.2547 60.1229L46.5153 60.8062L49.6411 59.6332L50.7601 59.2131L51.835 58.8112C51.835 58.9938 51.835 59.1766 51.835 59.3665C51.835 59.6223 51.8056 59.8817 51.7837 60.1448C51.7616 60.4079 51.7359 60.6381 51.6993 60.8756C52.4037 62.0959 53.0677 63.1738 53.0677 63.1738C53.0677 63.1738 50.5069 65.1285 50.4592 65.3368Z" fill="#5E5C7F"/>
<path d="M46.9266 68.971C46.8109 68.0927 46.5379 67.2394 46.1189 66.4473C45.4457 65.1694 44.4218 64.084 43.153 63.3036C41.8844 62.5233 40.417 62.0762 38.9029 62.0089C37.3889 61.9416 35.8832 62.2564 34.542 62.9207C33.2006 63.585 32.0725 64.5746 31.2742 65.7872C30.4761 66.9997 30.0369 68.3909 30.0022 69.8169C29.9676 71.2428 30.3386 72.6515 31.077 73.8971C31.8154 75.1428 32.8942 76.18 34.2017 76.9014C35.5093 77.6228 36.9981 78.0021 38.5138 78C39.8184 77.9976 41.105 77.7127 42.2739 77.1673C43.6952 76.5044 44.8911 75.4804 45.7263 74.2113C46.5616 72.942 47.0027 71.4783 47 69.9855C47.0005 69.6461 46.9759 69.3071 46.9266 68.971ZM41.9299 76.5164C41.5877 76.6745 41.2338 76.8094 40.8711 76.92C39.1759 77.4335 37.3443 77.3802 35.6859 76.7694C34.0277 76.1585 32.6443 75.0276 31.7701 73.5676C30.8957 72.1078 30.584 70.4086 30.8875 68.7573C31.1911 67.1061 32.0913 65.6041 33.436 64.5054C34.6961 63.4784 36.2754 62.8623 37.938 62.7491C38.1197 62.7491 38.3051 62.7272 38.4868 62.7272C38.8854 62.727 39.2833 62.7561 39.6769 62.8146C40.9024 62.9917 42.0646 63.4436 43.0653 64.1322C44.0661 64.8208 44.8761 65.7258 45.4272 66.7709C45.8286 67.5296 46.0826 68.3499 46.1769 69.1927C46.3531 70.676 46.0401 72.1744 45.2803 73.4846C44.5206 74.7948 43.3508 75.8533 41.9299 76.5164Z" fill="#46CDCF"/>
</svg>
