<svg width="19" height="20" viewBox="0 0 19 20" fill="none" xmlns="http://www.w3.org/2000/svg">
<path d="M9.67412 0.75C7.20863 0.752548 4.84484 1.73309 3.10146 3.47646C1.35809 5.21984 0.377548 7.58363 0.375 10.0491C0.375 12.5337 1.34163 14.8685 3.0975 16.6244C3.95908 17.4908 4.98399 18.1777 6.11289 18.6453C7.24179 19.1128 8.45224 19.3518 9.67412 19.3482C12.1396 19.3457 14.5034 18.3652 16.2468 16.6218C17.9902 14.8784 18.9707 12.5146 18.9732 10.0491C18.9707 7.58363 17.9902 5.21984 16.2468 3.47646C14.5034 1.73309 12.1396 0.752548 9.67412 0.75ZM4.05312 16.5639C4.69584 15.7277 5.51907 15.0475 6.46142 14.5739C7.40376 14.1004 8.44087 13.8457 9.49537 13.829C9.52837 13.8304 9.56 13.8386 9.593 13.8386H9.62463C9.65488 13.8386 9.68237 13.8304 9.71262 13.829C10.7817 13.8472 11.8324 14.1102 12.784 14.5979C13.7355 15.0856 14.5626 15.785 15.2016 16.6422C13.6555 17.9471 11.6973 18.6622 9.67412 18.6607C7.60855 18.6644 5.61161 17.9195 4.05312 16.5639ZM9.59713 13.1346C9.56275 13.1346 9.52975 13.1401 9.49537 13.1415C8.6928 13.1143 7.93248 12.7751 7.37606 12.1961C6.81963 11.6171 6.51099 10.8439 6.51575 10.0409C6.51719 9.63439 6.59886 9.23219 6.75608 8.85733C6.9133 8.48248 7.14298 8.14235 7.43194 7.85646C7.72089 7.57056 8.06345 7.34453 8.43996 7.19132C8.81647 7.0381 9.21952 6.96073 9.626 6.96362C10.0325 6.96506 10.4347 7.04673 10.8095 7.20395C11.1844 7.36117 11.5245 7.59085 11.8104 7.87981C12.0963 8.16877 12.3223 8.51133 12.4756 8.88784C12.6288 9.26435 12.7061 9.6674 12.7032 10.0739C12.7032 11.7404 11.3695 13.0947 9.714 13.1429C9.6755 13.1415 9.637 13.1346 9.59713 13.1346ZM15.7118 16.1803C14.6485 14.7772 13.1362 13.7812 11.4272 13.3588C12.0219 13.0329 12.518 12.5531 12.8635 11.9696C13.2089 11.3861 13.391 10.7204 13.3907 10.0423C13.3891 9.54553 13.2896 9.05401 13.0977 8.59583C12.9059 8.13765 12.6256 7.72181 12.2728 7.37211C11.92 7.02241 11.5018 6.74573 11.0419 6.5579C10.5821 6.37007 10.0897 6.27479 9.593 6.2775C9.09628 6.27912 8.60476 6.3787 8.14658 6.57053C7.6884 6.76237 7.27256 7.04269 6.92286 7.39545C6.57316 7.74822 6.29648 8.16649 6.10865 8.62633C5.92082 9.08617 5.82554 9.57854 5.82825 10.0752C5.83078 10.747 6.01353 11.4058 6.35745 11.9829C6.70137 12.5599 7.19385 13.0341 7.7835 13.356C6.10339 13.7687 4.61112 14.7349 3.54712 16.0991C1.95125 14.4917 1.05818 12.3169 1.06388 10.0519C1.06642 7.76871 1.97453 5.57979 3.58898 3.96535C5.20342 2.35091 7.39234 1.4428 9.6755 1.44025C11.9587 1.4428 14.1476 2.35091 15.762 3.96535C17.3765 5.57979 18.2846 7.76871 18.2871 10.0519C18.2865 11.1932 18.0585 12.3231 17.6163 13.3753C17.1741 14.4275 16.5267 15.3811 15.7118 16.1803Z" fill="white"/>
</svg>
